<svg width="400" height="400" viewBox="0 0 400 400" fill="none" xmlns="http://www.w3.org/2000/svg">
<rect width="400" height="400" fill="white"/>
<path d="M153.62 301.59C247.96 301.59 299.56 223.43 299.56 155.65C299.56 153.43 299.56 151.22 299.41 149.02C309.448 141.759 318.114 132.769 325 122.47C315.639 126.618 305.708 129.338 295.54 130.54C306.247 124.13 314.261 114.048 318.09 102.17C308.022 108.145 297.006 112.355 285.52 114.62C277.787 106.397 267.559 100.952 256.419 99.1271C245.279 97.3026 233.848 99.2004 223.895 104.527C213.943 109.853 206.023 118.311 201.362 128.592C196.701 138.873 195.558 150.404 198.11 161.4C177.718 160.378 157.768 155.078 139.556 145.846C121.345 136.613 105.278 123.654 92.4 107.81C85.8409 119.102 83.832 132.469 86.7823 145.189C89.7326 157.91 97.4202 169.028 108.28 176.28C100.117 176.038 92.1328 173.836 85 169.86C85 170.07 85 170.29 85 170.51C85.0032 182.352 89.1026 193.829 96.6028 202.993C104.103 212.157 114.542 218.445 126.15 220.79C118.599 222.849 110.676 223.15 102.99 221.67C106.268 231.862 112.649 240.774 121.241 247.161C129.833 253.547 140.206 257.089 150.91 257.29C132.747 271.564 110.311 279.313 87.21 279.29C83.129 279.282 79.052 279.035 75 278.55C98.4564 293.603 125.749 301.587 153.62 301.55" fill="black"/>
</svg>
